HIERARCHY
ROOT joint_Root
{
	OFFSET 0.0 0.0 0.0
	CHANNELS 6 Xposition Yposition Zposition Zrotation Xrotation Yrotation 
	JOINT Hips
	{
		OFFSET -17.1583 93.1646 452.98
		CHANNELS 6 Xposition Yposition Zposition Zrotation Xrotation Yrotation 
		JOINT Spine
		{
			OFFSET 15.7357 0.0 0.0
			CHANNELS 6 Xposition Yposition Zposition Zrotation Xrotation Yrotation 
			JOINT Chest
			{
				OFFSET 8.98455 -0.406207 0.0
				CHANNELS 6 Xposition Yposition Zposition Zrotation Xrotation Yrotation 
				JOINT Neck
				{
					OFFSET 16.3773 0.0 0.0
					CHANNELS 6 Xposition Yposition Zposition Zrotation Xrotation Yrotation 
					JOINT Head
					{
						OFFSET 6.45672 0.0 0.0
						CHANNELS 6 Xposition Yposition Zposition Zrotation Xrotation Yrotation 
						End Site
						{
							OFFSET 0.0 0.0 0.0
						}
					}
				}
				JOINT Shoulder_L
				{
					OFFSET 12.9942 -0.242716 4.98039
					CHANNELS 6 Xposition Yposition Zposition Zrotation Xrotation Yrotation 
					JOINT UpperArm_L
					{
						OFFSET 5.34809 0.0 0.0
						CHANNELS 6 Xposition Yposition Zposition Zrotation Xrotation Yrotation 
						JOINT LowerArm_L
						{
							OFFSET 24.3286 1.87007e-05 0.0
							CHANNELS 6 Xposition Yposition Zposition Zrotation Xrotation Yrotation 
							JOINT Hand_L
							{
								OFFSET 22.2916 0.0 0.0
								CHANNELS 6 Xposition Yposition Zposition Zrotation Xrotation Yrotation 
								End Site
								{
									OFFSET 0.0 0.0 0.0
								}
							}
						}
					}
				}
				JOINT Shoulder_R
				{
					OFFSET 12.9945 -0.242716 -4.98039
					CHANNELS 6 Xposition Yposition Zposition Zrotation Xrotation Yrotation 
					JOINT UpperArm_R
					{
						OFFSET -5.34813 0.0 0.0
						CHANNELS 6 Xposition Yposition Zposition Zrotation Xrotation Yrotation 
						JOINT LowerArm_R
						{
							OFFSET -24.3289 0.000322201 0.0
							CHANNELS 6 Xposition Yposition Zposition Zrotation Xrotation Yrotation 
							JOINT Hand_R
							{
								OFFSET -22.2915 -0.000108084 0.0
								CHANNELS 6 Xposition Yposition Zposition Zrotation Xrotation Yrotation 
								End Site
								{
									OFFSET 0.0 0.0 0.0
								}
							}
						}
					}
				}
			}
		}
		JOINT UpperLeg_L
		{
			OFFSET -2.19248 -6.46944 0.0
			CHANNELS 6 Xposition Yposition Zposition Zrotation Xrotation Yrotation 
			JOINT LowerLeg_L
			{
				OFFSET 39.0811 0.0 -1.23785e-05
				CHANNELS 6 Xposition Yposition Zposition Zrotation Xrotation Yrotation 
				JOINT Foot_L
				{
					OFFSET 40.9854 0.0 -1.26872e-05
					CHANNELS 6 Xposition Yposition Zposition Zrotation Xrotation Yrotation 
					JOINT Toes_L
					{
						OFFSET 11.7543 0.0 0.0
						CHANNELS 6 Xposition Yposition Zposition Zrotation Xrotation Yrotation 
						End Site
						{
							OFFSET 0.0 0.0 0.0
						}
					}
				}
			}
		}
		JOINT UpperLeg_R
		{
			OFFSET -2.19251 6.46944 0.0
			CHANNELS 6 Xposition Yposition Zposition Zrotation Xrotation Yrotation 
			JOINT LowerLeg_R
			{
				OFFSET -39.0811 -0.00228153 -0.0401928
				CHANNELS 6 Xposition Yposition Zposition Zrotation Xrotation Yrotation 
				JOINT Foot_R
				{
					OFFSET -40.9854 0.0 0.0
					CHANNELS 6 Xposition Yposition Zposition Zrotation Xrotation Yrotation 
					JOINT Toes_R
					{
						OFFSET -11.7543 0.0 0.0
						CHANNELS 6 Xposition Yposition Zposition Zrotation Xrotation Yrotation 
						End Site
						{
							OFFSET 0.0 0.0 0.0
						}
					}
				}
			}
		}
	}
}
MOTION
Frames:	6
Frame Time:	0.0333333
0.000000 0.000000 0.000000 0.000000 0.000000 -0.000000 -2.819630 92.035600 -0.020026 84.962000 -1.681500 2.213670 15.735700 0.000005 -0.000001 86.179100 87.460000 -82.703700 8.984550 -0.406207 -0.000000 -2.668080 -0.654552 6.935790 16.377300 -0.000001 -0.000001 8.751960 6.374630 -8.325230 6.456720 -0.000001 -0.000000 9.375860 6.055070 -20.198300 12.994200 -0.242716 4.980390 -93.113300 9.220760 -71.251100 5.348090 -0.000007 -0.000001 -70.451000 -11.918600 3.145520 24.328600 0.000019 0.000005 29.229600 -23.691300 -125.681000 22.291600 -0.000001 0.000005 56.133300 4.241360 20.692100 12.994500 -0.242716 -4.980390 88.500800 4.727540 -72.382500 -5.348130 -0.000001 -0.000004 -69.421200 30.139800 -4.423390 -24.328900 0.000322 -0.000009 2.192630 7.936910 -15.504600 -22.291500 -0.000108 -0.000004 0.741775 5.272280 0.836398 -2.192480 -6.469440 -0.000000 -172.482000 -2.325480 -4.449270 39.081100 -0.000007 -0.000012 0.314700 -0.620593 26.890000 40.985400 -0.000006 -0.000013 0.989012 10.262300 -75.744100 11.754300 -0.000000 0.000003 0.000030 0.167111 -9.798900 -2.192510 6.469440 -0.000001 -170.861000 4.865700 -177.650000 -39.081100 -0.002282 -0.040193 0.129278 -0.470954 14.972500 -40.985400 0.000008 0.000006 4.665010 -1.233840 -71.313100 -11.754300 -0.000006 -0.000006 -0.009749 0.269420 -5.628080
0.000000 0.000000 0.000000 0.000000 0.000000 -0.000000 -2.841410 92.027100 -0.007589 84.924400 -1.779680 2.158000 15.735700 0.000005 -0.000001 86.606800 87.443500 -83.165200 8.984550 -0.406207 -0.000000 -2.634340 -0.614583 6.869150 16.377300 -0.000001 -0.000001 8.643280 6.366650 -8.205750 6.456720 -0.000001 -0.000000 9.275900 6.101690 -20.033200 12.994200 -0.242716 4.980390 -93.142700 9.267410 -71.173900 5.348090 -0.000007 -0.000001 -70.407300 -10.504300 3.900370 24.328600 0.000019 0.000005 35.123300 -28.447600 -124.105000 22.291600 -0.000001 0.000005 58.445500 4.455770 17.335700 12.994500 -0.242716 -4.980390 88.475800 4.777970 -72.283700 -5.348130 -0.000001 -0.000004 -69.370300 30.161600 -4.455370 -24.328900 0.000322 -0.000009 2.203090 7.909430 -15.626100 -22.291500 -0.000108 -0.000004 0.848687 5.271860 0.847899 -2.192480 -6.469440 -0.000000 -172.445000 -2.391360 -4.491340 39.081100 -0.000007 -0.000012 0.322572 -0.634922 26.933500 40.985400 -0.000006 -0.000013 1.076140 10.189100 -75.859600 11.754300 -0.000000 0.000003 -0.000117 0.169579 -9.698690 -2.192510 6.469440 -0.000001 -170.813000 4.872430 -177.689000 -39.081100 -0.002282 -0.040193 0.129375 -0.471187 14.976400 -40.985400 0.000008 0.000006 4.700180 -1.135720 -71.295900 -11.754300 -0.000006 -0.000006 -0.009573 0.268089 -5.682520
0.000000 0.000000 0.000000 0.000000 0.000000 -0.000000 -2.860930 92.034500 0.012861 84.913900 -1.862970 2.087880 15.735700 0.000005 -0.000001 87.487600 87.445300 -84.091600 8.984550 -0.406207 -0.000000 -2.636820 -0.531910 6.779940 16.377300 -0.000001 -0.000001 8.666630 6.342050 -8.187570 6.456720 -0.000001 -0.000000 9.195240 5.995950 -19.844600 12.994200 -0.242716 4.980390 -93.174600 9.326560 -71.107300 5.348090 -0.000007 -0.000001 -70.188600 -8.710450 4.326170 24.328600 0.000019 0.000005 41.933700 -33.753200 -121.736000 22.291600 -0.000001 0.000005 61.462200 4.688910 13.366000 12.994500 -0.242716 -4.980390 88.480100 4.766050 -72.289300 -5.348130 -0.000001 -0.000004 -69.478700 29.969400 -4.390470 -24.328900 0.000322 -0.000009 2.238420 8.029020 -15.641100 -22.291500 -0.000108 -0.000004 0.746620 5.273610 0.800379 -2.192480 -6.469440 -0.000000 -172.409000 -2.402630 -4.515660 39.081100 -0.000007 -0.000012 0.313741 -0.618765 26.887600 40.985400 -0.000006 -0.000013 0.916087 10.188200 -75.763600 11.754300 -0.000000 0.000003 -0.000032 0.168155 -9.756530 -2.192510 6.469440 -0.000001 -170.818000 4.966620 -177.686000 -39.081100 -0.002282 -0.040193 0.126463 -0.463653 14.872900 -40.985400 0.000008 0.000006 4.730150 -0.967904 -71.287500 -11.754300 -0.000006 -0.000006 -0.009894 0.270512 -5.583440
0.000000 0.000000 0.000000 0.000000 0.000000 -0.000000 -2.882290 92.031800 0.027438 84.929100 -1.914660 2.022150 15.735700 0.000005 -0.000001 88.230900 87.456500 -84.882000 8.984550 -0.406207 -0.000000 -2.659260 -0.461382 6.687340 16.377300 -0.000001 -0.000001 8.696960 6.268180 -8.231540 6.456720 -0.000001 -0.000000 9.209680 5.876230 -19.775200 12.994200 -0.242716 4.980390 -93.189600 9.327410 -71.025500 5.348090 -0.000007 -0.000001 -69.955700 -7.055200 4.348910 24.328600 0.000019 0.000005 48.959400 -38.584500 -118.498000 22.291600 -0.000001 0.000005 64.450300 4.880040 9.787520 12.994500 -0.242716 -4.980390 88.482900 4.766000 -72.320300 -5.348130 -0.000001 -0.000004 -69.517700 30.164800 -4.327780 -24.328900 0.000322 -0.000009 2.190840 7.866450 -15.623700 -22.291500 -0.000108 -0.000004 0.739902 5.273110 0.814216 -2.192480 -6.469440 -0.000000 -172.415000 -2.470750 -4.546770 39.081100 -0.000007 -0.000012 0.314476 -0.620592 26.873600 40.985400 -0.000006 -0.000013 0.911056 10.197800 -75.784700 11.754300 -0.000000 0.000003 0.000013 0.167411 -9.786730 -2.192510 6.469440 -0.000001 -170.833000 5.005890 -177.754000 -39.081100 -0.002282 -0.040193 0.127323 -0.465958 14.901400 -40.985400 0.000008 0.000006 4.751910 -0.870539 -71.306800 -11.754300 -0.000006 -0.000006 -0.009912 0.270647 -5.577880
0.000000 0.000000 0.000000 0.000000 0.000000 -0.000000 -2.901340 92.034200 0.047202 84.952800 -1.867310 2.020740 15.735700 0.000005 -0.000001 88.558000 87.443700 -85.230700 8.984550 -0.406207 -0.000000 -2.633960 -0.430316 6.644760 16.377300 -0.000001 -0.000001 8.759090 6.224200 -8.362210 6.456720 -0.000001 -0.000000 9.286680 5.711930 -19.893400 12.994200 -0.242716 4.980390 -93.192500 9.351490 -71.054300 5.348090 -0.000007 -0.000001 -69.656700 -6.126580 4.087350 24.328600 0.000019 0.000005 54.711900 -42.016600 -115.347000 22.291600 -0.000001 0.000005 66.337900 4.958040 8.201620 12.994500 -0.242716 -4.980390 88.498500 4.720360 -72.331800 -5.348130 -0.000001 -0.000004 -69.560400 30.280100 -4.338950 -24.328900 0.000322 -0.000009 2.181190 7.868280 -15.554700 -22.291500 -0.000108 -0.000004 0.778543 5.273510 0.803095 -2.192480 -6.469440 -0.000000 -172.408000 -2.487200 -4.542590 39.081100 -0.000007 -0.000012 0.312543 -0.617445 26.848600 40.985400 -0.000006 -0.000013 0.817500 10.254000 -75.727400 11.754300 -0.000000 0.000003 0.000015 0.167368 -9.788480 -2.192510 6.469440 -0.000001 -170.836000 5.001390 -177.721000 -39.081100 -0.002282 -0.040193 0.127150 -0.466910 14.852500 -40.985400 0.000008 0.000006 4.763940 -0.902541 -71.303200 -11.754300 -0.000006 -0.000006 -0.010040 0.271606 -5.538700
0.000000 0.000000 0.000000 0.000000 0.000000 -0.000000 -2.926090 92.038100 0.062344 84.982000 -1.771430 2.055610 15.735700 0.000005 -0.000001 88.040300 87.421000 -84.713900 8.984550 -0.406207 -0.000000 -2.588510 -0.476634 6.642190 16.377300 -0.000001 -0.000001 8.851750 6.201320 -8.518070 6.456720 -0.000001 -0.000000 9.346000 5.696720 -20.186800 12.994200 -0.242716 4.980390 -93.198800 9.351460 -71.019900 5.348090 -0.000007 -0.000001 -69.506400 -5.883590 3.618660 24.328600 0.000019 0.000005 55.719000 -42.664400 -114.795000 22.291600 -0.000001 0.000005 66.771400 4.967330 8.005780 12.994500 -0.242716 -4.980390 88.501300 4.707080 -72.316700 -5.348130 -0.000001 -0.000004 -69.537900 30.206000 -4.418490 -24.328900 0.000322 -0.000009 2.189190 7.936890 -15.481400 -22.291500 -0.000108 -0.000004 0.660198 5.274920 0.764814 -2.192480 -6.469440 -0.000000 -172.402000 -2.441940 -4.499690 39.081100 -0.000007 -0.000012 0.309558 -0.612153 26.825800 40.985400 -0.000006 -0.000013 0.684310 10.342500 -75.739100 11.754300 -0.000000 0.000003 -0.000209 0.171072 -9.638020 -2.192510 6.469440 -0.000001 -170.856000 5.054930 -177.663000 -39.081100 -0.002282 -0.040193 0.125783 -0.462773 14.821300 -40.985400 0.000008 0.000006 4.701080 -0.932048 -71.318500 -11.754300 -0.000006 -0.000006 -0.009919 0.270697 -5.575860
